<?xml version="1.0" encoding="utf-8"?>
<!-- Generator: Adobe Illustrator 23.0.3, SVG Export Plug-In . SVG Version: 6.00 Build 0)  -->
<svg version="1.1" id="Layer_1" xmlns="http://www.w3.org/2000/svg" xmlns:xlink="http://www.w3.org/1999/xlink" x="0px" y="0px"
	 viewBox="0 0 1300 260" style="enable-background:new 0 0 1300 260;" xml:space="preserve">
<style type="text/css">
	.st0{fill:#050707;}
</style>
<g>
	<path class="st0" d="M104.66,1.36c65.77,0,114.17,41.73,114.17,124.39c0,81.67-45.19,127.21-114.17,127.21H2.78V1.36H104.66z
		 M100.78,206.45c39.23,0,62.72-27.56,62.72-75.41c0-57.63-22.73-83.16-71.32-83.16H58.1v158.57H100.78z"/>
	<path class="st0" d="M292.25,70.78v33.83h0.7c5.58-13.25,15.33-23.7,26.97-30.31c13.98-7.94,30.44-10.59,42.1-6.69v46.52
		c-37.2-6.86-67.31,5.3-67.31,56.73v82.11h-50.04V70.78H292.25z"/>
	<path class="st0" d="M842.13,70.78v33.83h0.7c5.58-13.25,15.33-23.7,26.97-30.31c13.98-7.94,30.44-10.59,42.1-6.69v46.52
		c-37.2-6.86-67.31,5.3-67.31,56.73v82.11h-50.04V70.78H842.13z"/>
	<path class="st0" d="M386.97,203.99v48.97h-49.93v-48.97H386.97z"/>
	<path class="st0" d="M496.63,258.6c-49.38,0-82.81-29.39-82.81-77.52v-21.85h50.04v11.28c0,28.59,9.19,41.94,32.07,41.94
		c18.66,0,29.25-8.41,29.25-39.48V1.36h55.33v172.32C580.5,228.82,552.95,258.6,496.63,258.6z"/>
	<path class="st0" d="M606.85,126.81c2.02-42.48,35.81-60.96,82.69-60.96c52.22,0,77.09,17.59,77.09,51.8v94.79
		c0,8.23,0.47,16.09,1.41,23.61c0.94,7.52,2.58,13.16,4.94,16.91h-50.75c-0.94-2.82-1.71-5.69-2.29-8.63
		c-0.59-2.94-1-5.93-1.23-8.99c-14.09,15.99-33.66,22.2-55.47,22.2c-38.75,0-62.02-20.08-62.02-54.27
		c0-36.95,24.32-49.9,61.67-55.32c18.75-2.72,32.02-3.67,43.36-7.51c9-3.05,10.35-7.69,10.35-16.45c0-18.44-8.31-24.67-29.52-24.67
		c-22.38,0-28.16,9.82-30.19,27.49H606.85z M716.59,163.81c-5.28,4.86-13.91,7.34-31.07,9.37c-20.86,2.47-34.27,12.58-34.27,27.99
		c0,15.54,8.26,23.26,27.72,23.26c25.14,0,37.62-13.28,37.62-41.94V163.81z"/>
	<path class="st0" d="M1045.25,70.78v38.6h-40.59v86.07c0,16.09,3.82,21.14,21.14,21.14c4.38,0,14.81-0.78,19.45-1.54v38.39
		c-5.87,1.09-22.67,2.27-33.19,2.27c-38.38,0-57.44-11.23-57.44-42.99V109.38h-30.31v-38.6h30.31V16.16h50.04v54.62H1045.25z"/>
	<polygon class="st0" points="1278,117.88 1191.78,117.88 1191.78,31.66 1142.91,31.66 1142.91,117.88 1056.69,117.88 
		1056.69,166.74 1142.91,166.74 1142.91,252.96 1191.78,252.96 1191.78,166.74 1278,166.74 	"/>
</g>
</svg>
